<svg width="1103" height="189" viewBox="0 0 1103 189" fill="none" xmlns="http://www.w3.org/2000/svg">
<path d="M93.2173 188.615C76.5971 188.615 61.1512 185.015 46.8796 177.814C32.7886 170.614 21.4075 159.989 12.7361 145.939C4.24536 131.714 0 114.504 0 94.3074C0 74.1112 4.42601 56.9884 13.278 42.9389C22.1301 28.7137 33.8726 18.0009 48.5055 10.8006C63.1384 3.60019 79.036 0 96.1981 0C111.915 0 126.006 2.8099 138.471 8.4297C150.936 14.0495 160.872 21.9524 168.279 32.1383C175.686 42.1486 179.75 53.6516 180.473 66.6474H140.097C138.652 56.6371 133.955 48.7343 126.006 42.9389C118.057 36.9678 108.031 33.9823 95.9271 33.9823C85.0878 33.9823 75.3326 36.4409 66.6612 41.3583C57.9898 46.1 51.125 53.0369 46.0667 62.1691C41.189 71.1257 38.7502 81.8385 38.7502 94.3074C38.7502 106.776 41.189 117.753 46.0667 127.236C51.125 136.544 57.8995 143.744 66.3902 148.837C75.0616 153.93 84.6362 156.477 95.1141 156.477C102.882 156.477 110.379 154.896 117.606 151.735C124.832 148.398 130.703 144.183 135.219 139.09C139.736 133.822 141.994 128.378 141.994 122.758C141.994 120.475 141.271 118.718 139.826 117.489C138.561 116.084 136.755 115.382 134.406 115.382H97.8239V85.6143H149.31C157.982 85.6143 165.208 88.5998 170.989 94.5709C176.95 100.366 179.931 107.303 179.931 115.382V186.507H143.891V158.321C140.819 167.453 134.587 174.829 125.193 180.449C115.98 185.893 105.321 188.615 93.2173 188.615Z" fill="white"/>
<path d="M212.171 2.10742H341.158V36.0897H252.818V75.0772H323.273V109.323H252.818V152.262H344.139V186.507H212.171V2.10742Z" fill="white"/>
<path d="M371.478 2.10742H414.835L490.98 124.075V2.10742H531.628V186.507H488.271L412.125 64.54V186.507H371.478V2.10742Z" fill="white"/>
<path d="M568.362 2.10742H697.349V36.0897H609.009V75.0772H679.464V109.323H609.009V152.262H700.33V186.507H568.362V2.10742Z" fill="white"/>
<path d="M791.079 188.615C776.807 188.615 764.161 185.981 753.141 180.712C742.302 175.268 733.721 167.716 727.398 158.057C721.256 148.223 717.914 136.807 717.372 123.811H756.393C757.296 133.295 760.729 140.759 766.69 146.203C772.833 151.647 780.962 154.369 791.079 154.369C800.292 154.369 807.608 152.525 813.028 148.837C818.448 145.149 821.157 139.881 821.157 133.031C821.157 128.29 819.532 124.514 816.28 121.704C813.209 118.718 809.325 116.435 804.628 114.855C799.931 113.274 793.246 111.43 784.575 109.323C771.749 106.337 761.18 103.176 752.87 99.8394C744.741 96.3271 737.695 90.7951 731.734 83.2434C725.772 75.6918 722.792 65.3303 722.792 52.1588C722.792 42.1486 725.592 33.192 731.192 25.2891C736.792 17.3863 744.56 11.2396 754.496 6.84913C764.432 2.28304 775.813 0 788.64 0C802.189 0 814.112 2.37085 824.409 7.11256C834.706 11.8543 842.745 18.6156 848.526 27.3966C854.488 36.1775 857.649 46.3634 858.011 57.9543H819.532C818.628 50.5783 815.467 44.7829 810.047 40.568C804.628 36.1775 797.492 33.9823 788.64 33.9823C780.51 33.9823 774.097 35.6507 769.4 38.9874C764.703 42.3242 762.355 46.7147 762.355 52.1588C762.355 57.2518 763.981 61.291 767.232 64.2766C770.484 67.2621 774.639 69.633 779.697 71.3891C784.756 72.9697 791.711 74.7259 800.563 76.6577C813.57 79.6432 824.138 82.7166 832.268 85.8777C840.397 89.0389 847.352 94.3952 853.133 101.947C859.095 109.323 862.075 119.509 862.075 132.505C862.075 143.92 859.095 153.842 853.133 162.272C847.172 170.702 838.861 177.2 828.203 181.766C817.544 186.332 805.17 188.615 791.079 188.615Z" fill="white"/>
<path d="M890.151 2.10742H931.07V186.507H890.151V2.10742Z" fill="white"/>
<path d="M1031.1 188.615C1016.83 188.615 1004.18 185.981 993.16 180.712C982.321 175.268 973.74 167.716 967.417 158.057C961.275 148.223 957.933 136.807 957.391 123.811H996.412C997.315 133.295 1000.75 140.759 1006.71 146.203C1012.85 151.647 1020.98 154.369 1031.1 154.369C1040.31 154.369 1047.63 152.525 1053.05 148.837C1058.47 145.149 1061.18 139.881 1061.18 133.031C1061.18 128.29 1059.55 124.514 1056.3 121.704C1053.23 118.718 1049.34 116.435 1044.65 114.855C1039.95 113.274 1033.27 111.43 1024.59 109.323C1011.77 106.337 1001.2 103.176 992.889 99.8394C984.76 96.3271 977.714 90.7951 971.753 83.2434C965.791 75.6918 962.81 65.3303 962.81 52.1588C962.81 42.1486 965.61 33.192 971.211 25.2891C976.811 17.3863 984.579 11.2396 994.515 6.84913C1004.45 2.28304 1015.83 0 1028.66 0C1042.21 0 1054.13 2.37085 1064.43 7.11256C1074.73 11.8543 1082.76 18.6156 1088.55 27.3966C1094.51 36.1775 1097.67 46.3634 1098.03 57.9543H1059.55C1058.65 50.5783 1055.49 44.7829 1050.07 40.568C1044.65 36.1775 1037.51 33.9823 1028.66 33.9823C1020.53 33.9823 1014.12 35.6507 1009.42 38.9874C1004.72 42.3242 1002.37 46.7147 1002.37 52.1588C1002.37 57.2518 1004 61.291 1007.25 64.2766C1010.5 67.2621 1014.66 69.633 1019.72 71.3891C1024.77 72.9697 1031.73 74.7259 1040.58 76.6577C1053.59 79.6432 1064.16 82.7166 1072.29 85.8777C1080.42 89.0389 1087.37 94.3952 1093.15 101.947C1099.11 109.323 1102.09 119.509 1102.09 132.505C1102.09 143.92 1099.11 153.842 1093.15 162.272C1087.19 170.702 1078.88 177.2 1068.22 181.766C1057.56 186.332 1045.19 188.615 1031.1 188.615Z" fill="white"/>
</svg>
