<svg width="84" height="14" viewBox="0 0 84 14" fill="none" xmlns="http://www.w3.org/2000/svg">
<path d="M0 0.197497H9.00138V2.6364H2.83688V5.43524H7.75364V7.89362H2.83688V10.9763H9.20918V13.4347H0V0.197497Z" fill="white"/>
<path d="M13.4451 12.8105C12.4367 12.2938 11.6361 11.5247 11.0433 10.5033C10.4505 9.48193 10.1546 8.25274 10.1546 6.81574C10.1546 5.37875 10.4542 4.14956 11.0526 3.12817C11.651 2.10679 12.458 1.33866 13.4729 0.821006C14.4878 0.304283 15.6011 0.0463845 16.8108 0.0463845C17.9073 0.0463845 18.8971 0.242127 19.7794 0.632685C20.6616 1.02324 21.3806 1.578 21.9353 2.29696C22.4901 3.01592 22.8241 3.84713 22.9372 4.79338H19.9491C19.861 4.10039 19.5233 3.54192 18.937 3.11982C18.3507 2.69772 17.6355 2.48621 16.7904 2.48621C16.0714 2.48621 15.4285 2.6532 14.8617 2.98716C14.2939 3.32113 13.8468 3.81281 13.5193 4.46219C13.1909 5.11157 13.0276 5.8964 13.0276 6.81667C13.0276 7.73694 13.1909 8.52177 13.5193 9.17115C13.8468 9.82053 14.2949 10.3094 14.8617 10.6369C15.4294 10.9653 16.0723 11.1286 16.7904 11.1286C17.6346 11.1286 18.3563 10.918 18.9556 10.495C19.5539 10.0729 19.9102 9.52089 20.0243 8.83996H22.8797C22.7916 9.77322 22.479 10.5989 21.9437 11.3169C21.4075 12.0359 20.6959 12.5934 19.8072 12.9905C18.9185 13.3875 17.9194 13.586 16.8098 13.586C15.5742 13.586 14.4526 13.3281 13.4442 12.8105H13.4451Z" fill="white"/>
<path d="M35.8153 0.197497V13.4347H32.9784V7.89455H27.5319V13.4347H24.6951V0.197497H27.5319V5.45472H32.9784V0.197497H35.8153Z" fill="white"/>
<path d="M63.3993 0.197497H72.4007V2.6364H66.2362V5.43524H71.153V7.89362H66.2362V10.9763H72.6085V13.4347H63.3993V0.197497Z" fill="white"/>
<path d="M76.3053 13.009C75.5427 12.6249 74.9434 12.0822 74.5083 11.3828C74.0733 10.6833 73.8367 9.86692 73.7996 8.93366H76.5224C76.5854 9.61458 76.8276 10.1508 77.2506 10.5413C77.6727 10.9319 78.2367 11.1276 78.9427 11.1276C79.5856 11.1276 80.0958 10.995 80.4743 10.7306C80.8528 10.4662 81.0421 10.0877 81.0421 9.59603C81.0421 9.25557 80.9317 8.9819 80.7109 8.77317C80.4901 8.56537 80.2164 8.40488 79.888 8.29077C79.5596 8.17759 79.0939 8.04493 78.4891 7.89372C77.5938 7.67942 76.8591 7.44936 76.2858 7.20352C75.7116 6.95768 75.2171 6.56341 74.8015 6.02164C74.3859 5.47987 74.1772 4.73586 74.1772 3.79054C74.1772 3.07158 74.372 2.42869 74.7635 1.86187C75.154 1.29413 75.6967 0.849765 76.3897 0.528784C77.0827 0.206875 77.8768 0.0463845 78.772 0.0463845C79.7173 0.0463845 80.5495 0.216152 81.2684 0.556614C81.9874 0.897077 82.5514 1.38226 82.9605 2.01309C83.3697 2.64392 83.5877 3.37494 83.6127 4.20708H80.928C80.8649 3.67737 80.6441 3.25898 80.2665 2.94913C79.888 2.64021 79.3899 2.48621 78.7729 2.48621C78.2052 2.48621 77.758 2.60588 77.4306 2.84523C77.1022 3.08457 76.9389 3.39999 76.9389 3.79054C76.9389 4.15605 77.0521 4.44642 77.2794 4.66072C77.5066 4.87501 77.7961 5.042 78.1495 5.16167C78.5021 5.28134 78.9882 5.41122 79.606 5.54945C80.5133 5.76374 81.2508 5.98453 81.8186 6.21089C82.3863 6.43817 82.8743 6.81945 83.2843 7.35473C83.6934 7.89094 83.8984 8.62474 83.8984 9.558C83.8984 10.3771 83.6906 11.0896 83.2741 11.6945C82.8585 12.2993 82.2778 12.766 81.5347 13.0934C80.7907 13.4218 79.927 13.5851 78.9436 13.5851C77.9603 13.5851 77.0688 13.3931 76.3053 13.0081V13.009Z" fill="white"/>
<path d="M54.7868 0C53.8721 0 53.0009 0.182755 52.2059 0.513013C51.4118 0.183683 50.5407 0 49.6269 0C48.7132 0 47.8773 0.176261 47.0953 0.493531C46.3132 0.176261 45.4579 0 44.5617 0C40.8389 0 37.8211 3.01778 37.8211 6.7406C37.8211 10.4634 40.8389 13.4812 44.5617 13.4812C45.4579 13.4812 46.3132 13.3049 47.0953 12.9877C47.8773 13.3049 48.7317 13.4812 49.6269 13.4812C50.5222 13.4812 51.4109 13.2984 52.2059 12.9682C53.0009 13.2984 53.8721 13.4812 54.7868 13.4812C58.5096 13.4812 61.5274 10.4634 61.5274 6.7406C61.5274 3.01778 58.5086 0 54.7868 0ZM45.4746 6.7406C45.4746 4.50208 47.2558 2.67268 49.4757 2.59197C48.5805 3.73581 48.0462 5.17559 48.0462 6.7406C48.0462 8.30561 48.5814 9.74446 49.4757 10.8883C47.2558 10.8085 45.4746 8.97912 45.4746 6.7406ZM40.4094 6.7406C40.4094 4.53455 42.1386 2.72555 44.3131 2.59661C43.4207 3.73952 42.8863 5.17744 42.8863 6.7406C42.8863 8.30376 43.4198 9.74075 44.3131 10.8846C42.1386 10.7556 40.4094 8.94665 40.4094 6.7406ZM54.7868 10.8929C52.4972 10.8929 50.6344 9.03014 50.6344 6.7406C50.6344 4.45106 52.4972 2.58826 54.7868 2.58826C57.0763 2.58826 58.9391 4.45106 58.9391 6.7406C58.9391 9.03014 57.0763 10.8929 54.7868 10.8929Z" fill="white"/>
</svg>
