<svg width="18" height="18" viewBox="0 0 18 18" fill="none" xmlns="http://www.w3.org/2000/svg">
<g clip-path="url(#clip0_912_312)">
<path fill-rule="evenodd" clip-rule="evenodd" d="M8.3061 5.63127C7.30967 5.04296 6.1875 5.84299 6.1875 6.90987V11.0901C6.1875 12.157 7.30967 12.957 8.3061 12.3687L11.8462 10.2786C12.8013 9.71476 12.8013 8.28524 11.8462 7.7214L8.3061 5.63127ZM7.3125 6.90987C7.3125 6.76101 7.38461 6.65688 7.4696 6.60374C7.55185 6.55231 7.64389 6.54674 7.73414 6.60002L11.2743 8.69015C11.3738 8.74889 11.4375 8.8611 11.4375 9C11.4375 9.1389 11.3738 9.25111 11.2743 9.30985L7.73414 11.4C7.64389 11.4533 7.55185 11.4477 7.4696 11.3963C7.38461 11.3431 7.3125 11.239 7.3125 11.0901V6.90987Z" fill="white"/>
<path fill-rule="evenodd" clip-rule="evenodd" d="M9 0.9375C4.5472 0.9375 0.9375 4.5472 0.9375 9C0.9375 13.4528 4.5472 17.0625 9 17.0625C13.4528 17.0625 17.0625 13.4528 17.0625 9C17.0625 4.5472 13.4528 0.9375 9 0.9375ZM2.0625 9C2.0625 5.16852 5.16852 2.0625 9 2.0625C12.8315 2.0625 15.9375 5.16852 15.9375 9C15.9375 12.8315 12.8315 15.9375 9 15.9375C5.16852 15.9375 2.0625 12.8315 2.0625 9Z" fill="white"/>
<path fill-rule="evenodd" clip-rule="evenodd" d="M8.3061 5.63127C7.30967 5.04296 6.1875 5.84299 6.1875 6.90987V11.0901C6.1875 12.157 7.30967 12.957 8.3061 12.3687L11.8462 10.2786C12.8013 9.71476 12.8013 8.28524 11.8462 7.7214L8.3061 5.63127ZM7.3125 6.90987C7.3125 6.76101 7.38461 6.65688 7.4696 6.60374C7.55185 6.55231 7.64389 6.54674 7.73414 6.60002L11.2743 8.69015C11.3738 8.74889 11.4375 8.8611 11.4375 9C11.4375 9.1389 11.3738 9.25111 11.2743 9.30985L7.73414 11.4C7.64389 11.4533 7.55185 11.4477 7.4696 11.3963C7.38461 11.3431 7.3125 11.239 7.3125 11.0901V6.90987Z" stroke="black" stroke-width="0.5"/>
<path fill-rule="evenodd" clip-rule="evenodd" d="M9 0.9375C4.5472 0.9375 0.9375 4.5472 0.9375 9C0.9375 13.4528 4.5472 17.0625 9 17.0625C13.4528 17.0625 17.0625 13.4528 17.0625 9C17.0625 4.5472 13.4528 0.9375 9 0.9375ZM2.0625 9C2.0625 5.16852 5.16852 2.0625 9 2.0625C12.8315 2.0625 15.9375 5.16852 15.9375 9C15.9375 12.8315 12.8315 15.9375 9 15.9375C5.16852 15.9375 2.0625 12.8315 2.0625 9Z" stroke="black" stroke-width="0.5"/>
</g>
<defs>
<clipPath id="clip0_912_312">
<rect width="18" height="18" fill="white"/>
</clipPath>
</defs>
</svg>
