<svg width="817" height="121" viewBox="0 0 817 121" fill="none" xmlns="http://www.w3.org/2000/svg">
<path d="M9.0625 19.5312L4.15625 36.9375C3.26042 40.0208 2.8125 42.5833 2.8125 44.625C2.8125 47.7083 3.85417 50.1562 5.9375 51.9688C8.04167 53.8021 10.6875 54.7188 13.875 54.7188C18.3333 54.7188 21.6875 53.25 23.9375 50.3125C26.1875 47.4375 28.3125 42.5729 30.3125 35.7188L34.0938 22.4062C34.7812 20.0729 35.125 18.3438 35.125 17.2188C35.125 15.0938 33.5729 14.0312 30.4688 14.0312L30.7188 13.1875H43.625L43.375 14.0312C41.0417 14.0938 39.4271 14.6667 38.5312 15.75C37.5938 16.8125 36.6458 18.9896 35.6875 22.2812L30.5312 39.875C28.8229 45.6667 26.5625 49.8958 23.75 52.5625C20.9375 55.2083 17.2812 56.5312 12.7812 56.5312C8.71875 56.5312 5.5625 55.3125 3.3125 52.875C1.14583 50.4583 0.0625 47.6667 0.0625 44.5C0.0625 42.8125 0.1875 41.2708 0.4375 39.875C0.770833 38.2708 1.5 35.5833 2.625 31.8125C5.08333 23.5208 6.3125 18.6562 6.3125 17.2188C6.3125 15.9688 5.84375 15.125 4.90625 14.6875C3.96875 14.25 2.33333 14.0312 0 14.0312L0.25 13.1875H17.7188L17.4688 14.0312C14.6354 14.0312 12.6667 14.4375 11.5625 15.25C10.4375 16.125 9.60417 17.5521 9.0625 19.5312ZM46.375 13.1875H54.8125L68.7188 50.3125H68.8438L76.6562 22.6562C77.3646 20.1354 77.7188 18.3229 77.7188 17.2188C77.7188 16.0521 77.3438 15.2292 76.5938 14.75C75.8438 14.2708 74.5625 14.0312 72.75 14.0312L73 13.1875H86.3125L86.0625 14.0938C83.9167 14.0938 82.375 14.5 81.4375 15.3125C80.4583 16.1667 79.625 17.7396 78.9375 20.0312L68.4375 56.5312H67.9375L54.1875 19.9062H54.0625L46.3125 47C45.7083 49.2917 45.4062 50.8021 45.4062 51.5312C45.4062 53.6562 47.0312 54.7188 50.2812 54.7188L50.0312 55.5625H37.2188L37.4062 54.7188C39.2188 54.7188 40.6458 54.3021 41.6875 53.4688C42.75 52.6354 43.5417 51.3021 44.0625 49.4688L53.1562 17.6875C52.3229 16.3542 51.3542 15.4375 50.25 14.9375C49.1667 14.4167 47.7708 14.1562 46.0625 14.1562L46.375 13.1875ZM86.75 49.4062L94.375 22.6562C95.0833 20.2604 95.4375 18.4479 95.4375 17.2188C95.4375 16.0729 95.0208 15.2604 94.1875 14.7812C93.3542 14.2812 92.0208 14.0312 90.1875 14.0312L90.4688 13.1875H120.406L117.719 23.25H116.938C117.417 20.1875 117.073 18 115.906 16.6875C114.76 15.375 112.594 14.7188 109.406 14.7188H99.5312L94.5 32.5938H100.75C103.938 32.5938 106.198 32.2083 107.531 31.4375C108.948 30.625 110.188 28.875 111.25 26.1875H112.031L107.656 41.625H106.906C107.427 38.9792 107.323 37.0729 106.594 35.9062C105.865 34.7188 104.427 34.125 102.281 34.125H94.0312L90.4062 47.0625C89.7188 49.3333 89.375 50.9062 89.375 51.7812C89.375 52.7188 89.7812 53.3333 90.5938 53.625C91.4062 53.8958 92.9583 54.0312 95.25 54.0312C101.062 54.0312 105.094 53.4375 107.344 52.25C109.615 51.0833 111.969 48.3021 114.406 43.9062H115.156L111.25 55.5625H78.9375L79.1875 54.7188C81.3542 54.7188 83 54.3333 84.125 53.5625C85.2708 52.7708 86.1458 51.3854 86.75 49.4062ZM164.688 12.25C168.688 12.25 171.885 13.6354 174.281 16.4062C176.698 19.1354 177.906 22.6562 177.906 26.9688C177.906 31.7396 176.438 36.7292 173.5 41.9375C172.042 44.5417 170.271 46.9479 168.188 49.1562C166.104 51.3854 163.594 53.1771 160.656 54.5312C157.74 55.8646 154.708 56.5312 151.562 56.5312C147.583 56.5312 144.406 55.125 142.031 52.3125C139.677 49.4583 138.5 45.9375 138.5 41.75C138.5 38.6875 139.156 35.4375 140.469 32C141.781 28.5417 143.552 25.3438 145.781 22.4062C148.01 19.4896 150.812 17.0625 154.188 15.125C157.604 13.2083 161.104 12.25 164.688 12.25ZM164.094 13.4375C161.427 13.4375 158.75 14.2917 156.062 16C153.375 17.6875 151 19.9479 148.938 22.7812C146.917 25.6146 145.312 28.8021 144.125 32.3438C142.896 35.9688 142.281 39.5312 142.281 43.0312C142.281 46.9896 143.135 50.0312 144.844 52.1562C146.573 54.2604 149.083 55.3125 152.375 55.3125C155.729 55.3125 159.104 53.9688 162.5 51.2812C165.854 48.5729 168.625 44.875 170.812 40.1875C173.042 35.5417 174.156 30.6875 174.156 25.625C174.156 21.6875 173.271 18.6771 171.5 16.5938C169.729 14.4896 167.26 13.4375 164.094 13.4375ZM185 49.4688L192.625 22.6562C193.062 21.1771 193.354 19.9583 193.5 19C193.667 18.0417 193.708 17.2188 193.625 16.5312C193.562 15.8438 193.302 15.3333 192.844 15C192.385 14.6458 191.802 14.3958 191.094 14.25C190.385 14.1042 189.438 14.0312 188.25 14.0312L188.531 13.1875H203.25C209.354 13.1875 214.021 14.6562 217.25 17.5938C220.5 20.5312 222.125 24.9479 222.125 30.8438C222.125 37.1354 219.865 42.75 215.344 47.6875C213.135 50.1458 210.229 52.0729 206.625 53.4688C203.021 54.8646 199.031 55.5625 194.656 55.5625H177.188L177.438 54.7188C179.604 54.7188 181.26 54.3438 182.406 53.5938C183.552 52.8438 184.417 51.4688 185 49.4688ZM197.812 14.8438L188.594 47.1875C187.781 50.0417 187.375 51.7292 187.375 52.25C187.375 52.7292 187.5 53.0938 187.75 53.3438C188.021 53.5938 188.469 53.7812 189.094 53.9062C189.948 54.0312 191.104 54.0938 192.562 54.0938H193.188C197.417 54.0938 201.198 53.4479 204.531 52.1562C207.865 50.8438 210.531 49.0312 212.531 46.7188C216.448 42.1146 218.406 36.5104 218.406 29.9062C218.406 19.7396 212.969 14.6562 202.094 14.6562C201.135 14.6562 199.708 14.7188 197.812 14.8438ZM242.75 22.2812L246.125 33.625L255.156 22.2812C257.677 19.0729 258.938 16.9167 258.938 15.8125C258.938 14.625 257.469 14.0312 254.531 14.0312L254.781 13.1875H267.188L266.875 14.0312C265.375 14.0312 264.031 14.5 262.844 15.4375C261.573 16.5 260.01 18.2083 258.156 20.5625L246.469 35.4062L243.188 47C242.583 49.125 242.281 50.6354 242.281 51.5312C242.281 52.6979 242.729 53.5208 243.625 54C244.542 54.4792 246.042 54.7188 248.125 54.7188L247.875 55.5625H231.031L231.281 54.7188C233.844 54.7188 235.708 54.3438 236.875 53.5938C238.042 52.8438 238.927 51.4479 239.531 49.4062L243.781 34.5625L238.969 19.1562C238.406 17.3646 237.646 16.0625 236.688 15.25C235.729 14.4375 234.417 14.0312 232.75 14.0312L232.938 13.1875H247.719L247.469 14.0312C245.406 14.0312 243.906 14.2708 242.969 14.75C242.052 15.2292 241.594 16.0312 241.594 17.1562C241.594 18.1146 241.979 19.8229 242.75 22.2812ZM261.625 56.5312H260.844L264.375 40.7812H265.156C264.323 44.8646 264.792 48.2812 266.562 51.0312C268.292 53.7188 271.146 55.0625 275.125 55.0625C277.896 55.0625 280.177 54.1667 281.969 52.375C283.802 50.5417 284.719 48.2292 284.719 45.4375C284.719 43.9583 284.25 42.4375 283.312 40.875C282.396 39.2917 281.188 37.7917 279.688 36.375C279.458 36.1458 279 35.7083 278.312 35.0625C277.625 34.3958 277.135 33.9167 276.844 33.625C276.552 33.3333 276.094 32.875 275.469 32.25C274.844 31.625 274.375 31.125 274.062 30.75C273.771 30.3542 273.385 29.8542 272.906 29.25C272.427 28.625 272.062 28.0729 271.812 27.5938C271.583 27.0938 271.333 26.5521 271.062 25.9688C270.812 25.3646 270.625 24.7604 270.5 24.1562C270.396 23.5521 270.344 22.9479 270.344 22.3438C270.344 19.6979 271.365 17.3542 273.406 15.3125C275.448 13.2708 277.938 12.25 280.875 12.25C282.833 12.25 284.865 12.6979 286.969 13.5938C289.135 14.4896 290.333 14.9375 290.562 14.9375C291.896 14.9375 293.021 14.0417 293.938 12.25H294.719L291.5 26.3125H290.75C291.583 22.9167 291.094 19.9479 289.281 17.4062C287.594 14.9479 284.885 13.7188 281.156 13.7188C278.74 13.7188 276.771 14.4479 275.25 15.9062C273.729 17.3438 272.969 19.125 272.969 21.25C272.969 23.9792 274.667 26.9271 278.062 30.0938C280.688 32.4062 282.458 34.0625 283.375 35.0625C286.188 38.1042 287.594 41.0729 287.594 43.9688C287.594 47.5312 286.448 50.5208 284.156 52.9375C281.885 55.3333 278.979 56.5312 275.438 56.5312C273.458 56.5312 271.354 56.0833 269.125 55.1875C266.958 54.2917 265.5 53.8438 264.75 53.8438C263.396 53.8438 262.354 54.7396 261.625 56.5312ZM293.625 56.5312H292.844L296.375 40.7812H297.156C296.323 44.8646 296.792 48.2812 298.562 51.0312C300.292 53.7188 303.146 55.0625 307.125 55.0625C309.896 55.0625 312.177 54.1667 313.969 52.375C315.802 50.5417 316.719 48.2292 316.719 45.4375C316.719 43.9583 316.25 42.4375 315.312 40.875C314.396 39.2917 313.188 37.7917 311.688 36.375C311.458 36.1458 311 35.7083 310.312 35.0625C309.625 34.3958 309.135 33.9167 308.844 33.625C308.552 33.3333 308.094 32.875 307.469 32.25C306.844 31.625 306.375 31.125 306.062 30.75C305.771 30.3542 305.385 29.8542 304.906 29.25C304.427 28.625 304.062 28.0729 303.812 27.5938C303.583 27.0938 303.333 26.5521 303.062 25.9688C302.812 25.3646 302.625 24.7604 302.5 24.1562C302.396 23.5521 302.344 22.9479 302.344 22.3438C302.344 19.6979 303.365 17.3542 305.406 15.3125C307.448 13.2708 309.938 12.25 312.875 12.25C314.833 12.25 316.865 12.6979 318.969 13.5938C321.135 14.4896 322.333 14.9375 322.562 14.9375C323.896 14.9375 325.021 14.0417 325.938 12.25H326.719L323.5 26.3125H322.75C323.583 22.9167 323.094 19.9479 321.281 17.4062C319.594 14.9479 316.885 13.7188 313.156 13.7188C310.74 13.7188 308.771 14.4479 307.25 15.9062C305.729 17.3438 304.969 19.125 304.969 21.25C304.969 23.9792 306.667 26.9271 310.062 30.0938C312.688 32.4062 314.458 34.0625 315.375 35.0625C318.188 38.1042 319.594 41.0729 319.594 43.9688C319.594 47.5312 318.448 50.5208 316.156 52.9375C313.885 55.3333 310.979 56.5312 307.438 56.5312C305.458 56.5312 303.354 56.0833 301.125 55.1875C298.958 54.2917 297.5 53.8438 296.75 53.8438C295.396 53.8438 294.354 54.7396 293.625 56.5312ZM330.688 49.4062L338.312 22.6562C339.021 20.2604 339.375 18.4479 339.375 17.2188C339.375 16.0729 338.958 15.2604 338.125 14.7812C337.292 14.2812 335.958 14.0312 334.125 14.0312L334.406 13.1875H364.344L361.656 23.25H360.875C361.354 20.1875 361.01 18 359.844 16.6875C358.698 15.375 356.531 14.7188 353.344 14.7188H343.469L338.438 32.5938H344.688C347.875 32.5938 350.135 32.2083 351.469 31.4375C352.885 30.625 354.125 28.875 355.188 26.1875H355.969L351.594 41.625H350.844C351.365 38.9792 351.26 37.0729 350.531 35.9062C349.802 34.7188 348.365 34.125 346.219 34.125H337.969L334.344 47.0625C333.656 49.3333 333.312 50.9062 333.312 51.7812C333.312 52.7188 333.719 53.3333 334.531 53.625C335.344 53.8958 336.896 54.0312 339.188 54.0312C345 54.0312 349.031 53.4375 351.281 52.25C353.552 51.0833 355.906 48.3021 358.344 43.9062H359.094L355.188 55.5625H322.875L323.125 54.7188C325.292 54.7188 326.938 54.3333 328.062 53.5625C329.208 52.7708 330.083 51.3854 330.688 49.4062ZM354.688 0H359.875L351.281 10.6875H350.594L354.688 0ZM369 49.4062L376.625 22.6562C377.333 20.2604 377.688 18.4479 377.688 17.2188C377.688 16.0729 377.271 15.2604 376.438 14.7812C375.604 14.2812 374.271 14.0312 372.438 14.0312L372.719 13.1875H402.656L399.969 23.25H399.188C399.667 20.1875 399.323 18 398.156 16.6875C397.01 15.375 394.844 14.7188 391.656 14.7188H381.781L376.75 32.5938H383C386.188 32.5938 388.448 32.2083 389.781 31.4375C391.198 30.625 392.438 28.875 393.5 26.1875H394.281L389.906 41.625H389.156C389.677 38.9792 389.573 37.0729 388.844 35.9062C388.115 34.7188 386.677 34.125 384.531 34.125H376.281L372.656 47.0625C371.969 49.3333 371.625 50.9062 371.625 51.7812C371.625 52.7188 372.031 53.3333 372.844 53.625C373.656 53.8958 375.208 54.0312 377.5 54.0312C383.312 54.0312 387.344 53.4375 389.594 52.25C391.865 51.0833 394.219 48.3021 396.656 43.9062H397.406L393.5 55.5625H361.188L361.438 54.7188C363.604 54.7188 365.25 54.3333 366.375 53.5625C367.521 52.7708 368.396 51.3854 369 49.4062ZM418.25 56.5312H417.469L421 40.7812H421.781C420.948 44.8646 421.417 48.2812 423.188 51.0312C424.917 53.7188 427.771 55.0625 431.75 55.0625C434.521 55.0625 436.802 54.1667 438.594 52.375C440.427 50.5417 441.344 48.2292 441.344 45.4375C441.344 43.9583 440.875 42.4375 439.938 40.875C439.021 39.2917 437.812 37.7917 436.312 36.375C436.083 36.1458 435.625 35.7083 434.938 35.0625C434.25 34.3958 433.76 33.9167 433.469 33.625C433.177 33.3333 432.719 32.875 432.094 32.25C431.469 31.625 431 31.125 430.688 30.75C430.396 30.3542 430.01 29.8542 429.531 29.25C429.052 28.625 428.688 28.0729 428.438 27.5938C428.208 27.0938 427.958 26.5521 427.688 25.9688C427.438 25.3646 427.25 24.7604 427.125 24.1562C427.021 23.5521 426.969 22.9479 426.969 22.3438C426.969 19.6979 427.99 17.3542 430.031 15.3125C432.073 13.2708 434.562 12.25 437.5 12.25C439.458 12.25 441.49 12.6979 443.594 13.5938C445.76 14.4896 446.958 14.9375 447.188 14.9375C448.521 14.9375 449.646 14.0417 450.562 12.25H451.344L448.125 26.3125H447.375C448.208 22.9167 447.719 19.9479 445.906 17.4062C444.219 14.9479 441.51 13.7188 437.781 13.7188C435.365 13.7188 433.396 14.4479 431.875 15.9062C430.354 17.3438 429.594 19.125 429.594 21.25C429.594 23.9792 431.292 26.9271 434.688 30.0938C437.312 32.4062 439.083 34.0625 440 35.0625C442.812 38.1042 444.219 41.0729 444.219 43.9688C444.219 47.5312 443.073 50.5208 440.781 52.9375C438.51 55.3333 435.604 56.5312 432.062 56.5312C430.083 56.5312 427.979 56.0833 425.75 55.1875C423.583 54.2917 422.125 53.8438 421.375 53.8438C420.021 53.8438 418.979 54.7396 418.25 56.5312ZM455.312 49.4062L462.938 22.6562C463.646 20.2604 464 18.4479 464 17.2188C464 16.0729 463.583 15.2604 462.75 14.7812C461.917 14.2812 460.583 14.0312 458.75 14.0312L459.031 13.1875H488.969L486.281 23.25H485.5C485.979 20.1875 485.635 18 484.469 16.6875C483.323 15.375 481.156 14.7188 477.969 14.7188H468.094L463.062 32.5938H469.312C472.5 32.5938 474.76 32.2083 476.094 31.4375C477.51 30.625 478.75 28.875 479.812 26.1875H480.594L476.219 41.625H475.469C475.99 38.9792 475.885 37.0729 475.156 35.9062C474.427 34.7188 472.99 34.125 470.844 34.125H462.594L458.969 47.0625C458.281 49.3333 457.938 50.9062 457.938 51.7812C457.938 52.7188 458.344 53.3333 459.156 53.625C459.969 53.8958 461.521 54.0312 463.812 54.0312C469.625 54.0312 473.656 53.4375 475.906 52.25C478.177 51.0833 480.531 48.3021 482.969 43.9062H483.719L479.812 55.5625H447.5L447.75 54.7188C449.917 54.7188 451.562 54.3333 452.688 53.5625C453.833 52.7708 454.708 51.3854 455.312 49.4062ZM496.312 13.1875H504.75L518.656 50.3125H518.781L526.594 22.6562C527.302 20.1354 527.656 18.3229 527.656 17.2188C527.656 16.0521 527.281 15.2292 526.531 14.75C525.781 14.2708 524.5 14.0312 522.688 14.0312L522.938 13.1875H536.25L536 14.0938C533.854 14.0938 532.312 14.5 531.375 15.3125C530.396 16.1667 529.562 17.7396 528.875 20.0312L518.375 56.5312H517.875L504.125 19.9062H504L496.25 47C495.646 49.2917 495.344 50.8021 495.344 51.5312C495.344 53.6562 496.969 54.7188 500.219 54.7188L499.969 55.5625H487.156L487.344 54.7188C489.156 54.7188 490.583 54.3021 491.625 53.4688C492.688 52.6354 493.479 51.3021 494 49.4688L503.094 17.6875C502.26 16.3542 501.292 15.4375 500.188 14.9375C499.104 14.4167 497.708 14.1562 496 14.1562L496.312 13.1875ZM531.625 56.5312H530.844L534.375 40.7812H535.156C534.323 44.8646 534.792 48.2812 536.562 51.0312C538.292 53.7188 541.146 55.0625 545.125 55.0625C547.896 55.0625 550.177 54.1667 551.969 52.375C553.802 50.5417 554.719 48.2292 554.719 45.4375C554.719 43.9583 554.25 42.4375 553.312 40.875C552.396 39.2917 551.188 37.7917 549.688 36.375C549.458 36.1458 549 35.7083 548.312 35.0625C547.625 34.3958 547.135 33.9167 546.844 33.625C546.552 33.3333 546.094 32.875 545.469 32.25C544.844 31.625 544.375 31.125 544.062 30.75C543.771 30.3542 543.385 29.8542 542.906 29.25C542.427 28.625 542.062 28.0729 541.812 27.5938C541.583 27.0938 541.333 26.5521 541.062 25.9688C540.812 25.3646 540.625 24.7604 540.5 24.1562C540.396 23.5521 540.344 22.9479 540.344 22.3438C540.344 19.6979 541.365 17.3542 543.406 15.3125C545.448 13.2708 547.938 12.25 550.875 12.25C552.833 12.25 554.865 12.6979 556.969 13.5938C559.135 14.4896 560.333 14.9375 560.562 14.9375C561.896 14.9375 563.021 14.0417 563.938 12.25H564.719L561.5 26.3125H560.75C561.583 22.9167 561.094 19.9479 559.281 17.4062C557.594 14.9479 554.885 13.7188 551.156 13.7188C548.74 13.7188 546.771 14.4479 545.25 15.9062C543.729 17.3438 542.969 19.125 542.969 21.25C542.969 23.9792 544.667 26.9271 548.062 30.0938C550.688 32.4062 552.458 34.0625 553.375 35.0625C556.188 38.1042 557.594 41.0729 557.594 43.9688C557.594 47.5312 556.448 50.5208 554.156 52.9375C551.885 55.3333 548.979 56.5312 545.438 56.5312C543.458 56.5312 541.354 56.0833 539.125 55.1875C536.958 54.2917 535.5 53.8438 534.75 53.8438C533.396 53.8438 532.354 54.7396 531.625 56.5312ZM592.312 12.25C596.312 12.25 599.51 13.6354 601.906 16.4062C604.323 19.1354 605.531 22.6562 605.531 26.9688C605.531 31.7396 604.062 36.7292 601.125 41.9375C599.667 44.5417 597.896 46.9479 595.812 49.1562C593.729 51.3854 591.219 53.1771 588.281 54.5312C585.365 55.8646 582.333 56.5312 579.188 56.5312C575.208 56.5312 572.031 55.125 569.656 52.3125C567.302 49.4583 566.125 45.9375 566.125 41.75C566.125 38.6875 566.781 35.4375 568.094 32C569.406 28.5417 571.177 25.3438 573.406 22.4062C575.635 19.4896 578.438 17.0625 581.812 15.125C585.229 13.2083 588.729 12.25 592.312 12.25ZM591.719 13.4375C589.052 13.4375 586.375 14.2917 583.688 16C581 17.6875 578.625 19.9479 576.562 22.7812C574.542 25.6146 572.938 28.8021 571.75 32.3438C570.521 35.9688 569.906 39.5312 569.906 43.0312C569.906 46.9896 570.76 50.0312 572.469 52.1562C574.198 54.2604 576.708 55.3125 580 55.3125C583.354 55.3125 586.729 53.9688 590.125 51.2812C593.479 48.5729 596.25 44.875 598.438 40.1875C600.667 35.5417 601.781 30.6875 601.781 25.625C601.781 21.6875 600.896 18.6771 599.125 16.5938C597.354 14.4896 594.885 13.4375 591.719 13.4375ZM641.875 55.5625H633.688L626.781 34.75H625.312C623.375 34.75 621.604 34.4792 620 33.9375L616.281 47C615.677 49.4792 615.375 50.9896 615.375 51.5312C615.375 52.6354 615.792 53.4479 616.625 53.9688C617.458 54.4688 618.875 54.7188 620.875 54.7188L620.625 55.5625H604.812L605.062 54.7188C607.312 54.7188 609 54.3021 610.125 53.4688C611.271 52.6354 612.104 51.2812 612.625 49.4062L620.25 22.6562C620.979 20.1771 621.344 18.3646 621.344 17.2188C621.344 15.0938 619.594 14.0312 616.094 14.0312L616.344 13.1875H629.969C633.74 13.1875 636.604 14.0104 638.562 15.6562C640.521 17.3021 641.5 19.6146 641.5 22.5938C641.5 25.7188 640.323 28.3646 637.969 30.5312C635.594 32.7188 632.823 34.0208 629.656 34.4375L633.688 46.3438C634.917 49.9688 636.021 52.2708 637 53.25C638.104 54.2292 639.833 54.7188 642.188 54.7188L641.875 55.5625ZM625.438 14.7812L620.312 32.7188C621.833 33.1354 623.448 33.3438 625.156 33.3438C629.01 33.3438 632.042 32.3021 634.25 30.2188C636.521 28.0729 637.656 25.5521 637.656 22.6562C637.656 17.2812 634.417 14.5938 627.938 14.5938C627.042 14.5938 626.208 14.6562 625.438 14.7812ZM660.125 55.5625H644.312L644.562 54.7188C646.771 54.7188 648.448 54.3125 649.594 53.5C650.74 52.6875 651.583 51.3229 652.125 49.4062L659.75 22.6562C660.479 20.4271 660.844 18.6146 660.844 17.2188C660.844 16.1354 660.417 15.3333 659.562 14.8125C658.729 14.2917 657.333 14.0312 655.375 14.0312L655.656 13.1875H671.469L671.188 14.0312C668.917 14.0312 667.24 14.4375 666.156 15.25C665.073 16.0417 664.219 17.4688 663.594 19.5312L655.781 47C655.177 49.2917 654.875 50.8021 654.875 51.5312C654.875 52.6771 655.292 53.5 656.125 54C656.958 54.4792 658.375 54.7188 660.375 54.7188L660.125 55.5625ZM673 49.4062L680.625 22.6562C681.333 20.2604 681.688 18.4479 681.688 17.2188C681.688 16.0729 681.271 15.2604 680.438 14.7812C679.604 14.2812 678.271 14.0312 676.438 14.0312L676.719 13.1875H706.656L703.969 23.25H703.188C703.667 20.1875 703.323 18 702.156 16.6875C701.01 15.375 698.844 14.7188 695.656 14.7188H685.781L680.75 32.5938H687C690.188 32.5938 692.448 32.2083 693.781 31.4375C695.198 30.625 696.438 28.875 697.5 26.1875H698.281L693.906 41.625H693.156C693.677 38.9792 693.573 37.0729 692.844 35.9062C692.115 34.7188 690.677 34.125 688.531 34.125H680.281L676.656 47.0625C675.969 49.3333 675.625 50.9062 675.625 51.7812C675.625 52.7188 676.031 53.3333 676.844 53.625C677.656 53.8958 679.208 54.0312 681.5 54.0312C687.312 54.0312 691.344 53.4375 693.594 52.25C695.865 51.0833 698.219 48.3021 700.656 43.9062H701.406L697.5 55.5625H665.188L665.438 54.7188C667.604 54.7188 669.25 54.3333 670.375 53.5625C671.521 52.7708 672.396 51.3854 673 49.4062ZM723.094 19.5312L715.281 47C714.677 49.125 714.375 50.6354 714.375 51.5312C714.375 52.1562 714.531 52.625 714.844 52.9375C715.156 53.2292 715.729 53.4479 716.562 53.5938C717.417 53.7188 718.698 53.7812 720.406 53.7812C725.802 53.7812 729.49 53.1979 731.469 52.0312C733.51 50.8229 735.583 48.0312 737.688 43.6562H738.438L734.406 55.5625H703.812L704.062 54.7188C706.312 54.7188 707.99 54.3125 709.094 53.5C710.219 52.6875 711.062 51.3229 711.625 49.4062L719.25 22.6562C719.979 20.1771 720.344 18.3646 720.344 17.2188C720.344 16.0729 719.938 15.2604 719.125 14.7812C718.312 14.2812 716.896 14.0312 714.875 14.0312L715.156 13.1875H731.156L730.875 14.0312C728.5 14.0312 726.76 14.4271 725.656 15.2188C724.573 16.0104 723.719 17.4479 723.094 19.5312ZM758.656 19.5312L750.844 47C750.24 49.125 749.938 50.6354 749.938 51.5312C749.938 52.1562 750.094 52.625 750.406 52.9375C750.719 53.2292 751.292 53.4479 752.125 53.5938C752.979 53.7188 754.26 53.7812 755.969 53.7812C761.365 53.7812 765.052 53.1979 767.031 52.0312C769.073 50.8229 771.146 48.0312 773.25 43.6562H774L769.969 55.5625H739.375L739.625 54.7188C741.875 54.7188 743.552 54.3125 744.656 53.5C745.781 52.6875 746.625 51.3229 747.188 49.4062L754.812 22.6562C755.542 20.1771 755.906 18.3646 755.906 17.2188C755.906 16.0729 755.5 15.2604 754.688 14.7812C753.875 14.2812 752.458 14.0312 750.438 14.0312L750.719 13.1875H766.719L766.438 14.0312C764.062 14.0312 762.323 14.4271 761.219 15.2188C760.135 16.0104 759.281 17.4479 758.656 19.5312ZM782.438 49.4062L790.062 22.6562C790.771 20.2604 791.125 18.4479 791.125 17.2188C791.125 16.0729 790.708 15.2604 789.875 14.7812C789.042 14.2812 787.708 14.0312 785.875 14.0312L786.156 13.1875H816.094L813.406 23.25H812.625C813.104 20.1875 812.76 18 811.594 16.6875C810.448 15.375 808.281 14.7188 805.094 14.7188H795.219L790.188 32.5938H796.438C799.625 32.5938 801.885 32.2083 803.219 31.4375C804.635 30.625 805.875 28.875 806.938 26.1875H807.719L803.344 41.625H802.594C803.115 38.9792 803.01 37.0729 802.281 35.9062C801.552 34.7188 800.115 34.125 797.969 34.125H789.719L786.094 47.0625C785.406 49.3333 785.062 50.9062 785.062 51.7812C785.062 52.7188 785.469 53.3333 786.281 53.625C787.094 53.8958 788.646 54.0312 790.938 54.0312C796.75 54.0312 800.781 53.4375 803.031 52.25C805.302 51.0833 807.656 48.3021 810.094 43.9062H810.844L806.938 55.5625H774.625L774.875 54.7188C777.042 54.7188 778.688 54.3333 779.812 53.5625C780.958 52.7708 781.833 51.3854 782.438 49.4062ZM44.6875 111.938L45.2812 105.219H31.9688L27.4375 111.5L26.5938 112.781C25.6562 114.115 25.1875 115.219 25.1875 116.094C25.1875 117.844 26.3125 118.719 28.5625 118.719L28.25 119.562H16.5938L16.875 118.719C18 118.594 18.9375 118.344 19.6875 117.969C20.4583 117.594 21.2188 116.99 21.9688 116.156L23.1875 114.75L24.3438 113.156C24.7604 112.531 25.0833 112.104 25.3125 111.875L51.0938 76.25H51.3438L48.0312 109.656C47.8229 112.635 47.7188 114.375 47.7188 114.875C47.7188 116.354 48.1667 117.365 49.0625 117.906C49.9583 118.448 51.4271 118.719 53.4688 118.719L53.1562 119.562H38.1875L38.4375 118.719C39.8542 118.719 40.9792 118.573 41.8125 118.281C42.6458 117.969 43.25 117.458 43.625 116.75C44 116.021 44.2396 115.375 44.3438 114.812C44.4688 114.229 44.5833 113.271 44.6875 111.938ZM47.1875 84.1562H47L33.125 103.688H45.4062L47.1875 84.1562ZM76.3125 83.5312L71.4062 100.938C70.5104 104.021 70.0625 106.583 70.0625 108.625C70.0625 111.708 71.1042 114.156 73.1875 115.969C75.2917 117.802 77.9375 118.719 81.125 118.719C85.5833 118.719 88.9375 117.25 91.1875 114.312C93.4375 111.438 95.5625 106.573 97.5625 99.7188L101.344 86.4062C102.031 84.0729 102.375 82.3438 102.375 81.2188C102.375 79.0938 100.823 78.0312 97.7188 78.0312L97.9688 77.1875H110.875L110.625 78.0312C108.292 78.0938 106.677 78.6667 105.781 79.75C104.844 80.8125 103.896 82.9896 102.938 86.2812L97.7812 103.875C96.0729 109.667 93.8125 113.896 91 116.562C88.1875 119.208 84.5312 120.531 80.0312 120.531C75.9688 120.531 72.8125 119.312 70.5625 116.875C68.3958 114.458 67.3125 111.667 67.3125 108.5C67.3125 106.812 67.4375 105.271 67.6875 103.875C68.0208 102.271 68.75 99.5833 69.875 95.8125C72.3333 87.5208 73.5625 82.6562 73.5625 81.2188C73.5625 79.9688 73.0938 79.125 72.1562 78.6875C71.2188 78.25 69.5833 78.0312 67.25 78.0312L67.5 77.1875H84.9688L84.7188 78.0312C81.8854 78.0312 79.9167 78.4375 78.8125 79.25C77.6875 80.125 76.8542 81.5521 76.3125 83.5312ZM163.844 76.25H164.625L161.5 89.9375H160.719C160.969 88.0833 160.948 86.4271 160.656 84.9688C160.365 83.4896 159.906 82.3021 159.281 81.4062C158.656 80.5104 157.875 79.7708 156.938 79.1875C156.021 78.6042 155.104 78.2083 154.188 78C153.271 77.7708 152.333 77.6562 151.375 77.6562C148.167 77.6562 145.125 78.4896 142.25 80.1562C139.375 81.8021 137 83.9896 135.125 86.7188C133.312 89.3854 131.896 92.2708 130.875 95.375C129.875 98.4583 129.375 101.448 129.375 104.344C129.375 108.719 130.625 112.188 133.125 114.75C135.625 117.312 139.062 118.594 143.438 118.594C149.125 118.594 154.01 115.698 158.094 109.906H159.25C154.979 116.99 149.094 120.531 141.594 120.531C136.927 120.531 133.104 119.01 130.125 115.969C127.188 112.906 125.719 108.792 125.719 103.625C125.719 98.8958 126.896 94.4375 129.25 90.25C131.625 86.0208 134.802 82.625 138.781 80.0625C142.781 77.5208 147.021 76.25 151.5 76.25C153.417 76.25 155.635 76.7396 158.156 77.7188C159.198 78.1354 160.031 78.3438 160.656 78.3438C161.76 78.3438 162.823 77.6458 163.844 76.25ZM192.75 76.25C196.75 76.25 199.948 77.6354 202.344 80.4062C204.76 83.1354 205.969 86.6562 205.969 90.9688C205.969 95.7396 204.5 100.729 201.562 105.938C200.104 108.542 198.333 110.948 196.25 113.156C194.167 115.385 191.656 117.177 188.719 118.531C185.802 119.865 182.771 120.531 179.625 120.531C175.646 120.531 172.469 119.125 170.094 116.312C167.74 113.458 166.562 109.938 166.562 105.75C166.562 102.688 167.219 99.4375 168.531 96C169.844 92.5417 171.615 89.3438 173.844 86.4062C176.073 83.4896 178.875 81.0625 182.25 79.125C185.667 77.2083 189.167 76.25 192.75 76.25ZM192.156 77.4375C189.49 77.4375 186.812 78.2917 184.125 80C181.438 81.6875 179.062 83.9479 177 86.7812C174.979 89.6146 173.375 92.8021 172.188 96.3438C170.958 99.9688 170.344 103.531 170.344 107.031C170.344 110.99 171.198 114.031 172.906 116.156C174.635 118.26 177.146 119.312 180.438 119.312C183.792 119.312 187.167 117.969 190.562 115.281C193.917 112.573 196.688 108.875 198.875 104.188C201.104 99.5417 202.219 94.6875 202.219 89.625C202.219 85.6875 201.333 82.6771 199.562 80.5938C197.792 78.4896 195.323 77.4375 192.156 77.4375ZM212.75 113.406L220.375 86.6562C221.083 84.2604 221.438 82.4479 221.438 81.2188C221.438 80.0729 221.021 79.2604 220.188 78.7812C219.354 78.2812 218.021 78.0312 216.188 78.0312L216.469 77.1875H246.406L243.719 87.25H242.938C243.417 84.1875 243.073 82 241.906 80.6875C240.76 79.375 238.594 78.7188 235.406 78.7188H225.531L220.5 96.5938H226.75C229.938 96.5938 232.198 96.2083 233.531 95.4375C234.948 94.625 236.188 92.875 237.25 90.1875H238.031L233.656 105.625H232.906C233.427 102.979 233.323 101.073 232.594 99.9062C231.865 98.7188 230.427 98.125 228.281 98.125H220.031L216.406 111.062C215.719 113.333 215.375 114.906 215.375 115.781C215.375 116.719 215.781 117.333 216.594 117.625C217.406 117.896 218.958 118.031 221.25 118.031C227.062 118.031 231.094 117.438 233.344 116.25C235.615 115.083 237.969 112.302 240.406 107.906H241.156L237.25 119.562H204.938L205.188 118.719C207.354 118.719 209 118.333 210.125 117.562C211.271 116.771 212.146 115.385 212.75 113.406ZM262.625 83.5312L257.719 100.938C256.823 104.021 256.375 106.583 256.375 108.625C256.375 111.708 257.417 114.156 259.5 115.969C261.604 117.802 264.25 118.719 267.438 118.719C271.896 118.719 275.25 117.25 277.5 114.312C279.75 111.438 281.875 106.573 283.875 99.7188L287.656 86.4062C288.344 84.0729 288.688 82.3438 288.688 81.2188C288.688 79.0938 287.135 78.0312 284.031 78.0312L284.281 77.1875H297.188L296.938 78.0312C294.604 78.0938 292.99 78.6667 292.094 79.75C291.156 80.8125 290.208 82.9896 289.25 86.2812L284.094 103.875C282.385 109.667 280.125 113.896 277.312 116.562C274.5 119.208 270.844 120.531 266.344 120.531C262.281 120.531 259.125 119.312 256.875 116.875C254.708 114.458 253.625 111.667 253.625 108.5C253.625 106.812 253.75 105.271 254 103.875C254.333 102.271 255.062 99.5833 256.188 95.8125C258.646 87.5208 259.875 82.6562 259.875 81.2188C259.875 79.9688 259.406 79.125 258.469 78.6875C257.531 78.25 255.896 78.0312 253.562 78.0312L253.812 77.1875H271.281L271.031 78.0312C268.198 78.0312 266.229 78.4375 265.125 79.25C264 80.125 263.167 81.5521 262.625 83.5312ZM326.812 119.562H318.625L311.719 98.75H310.25C308.312 98.75 306.542 98.4792 304.938 97.9375L301.219 111C300.615 113.479 300.312 114.99 300.312 115.531C300.312 116.635 300.729 117.448 301.562 117.969C302.396 118.469 303.812 118.719 305.812 118.719L305.562 119.562H289.75L290 118.719C292.25 118.719 293.938 118.302 295.062 117.469C296.208 116.635 297.042 115.281 297.562 113.406L305.188 86.6562C305.917 84.1771 306.281 82.3646 306.281 81.2188C306.281 79.0938 304.531 78.0312 301.031 78.0312L301.281 77.1875H314.906C318.677 77.1875 321.542 78.0104 323.5 79.6562C325.458 81.3021 326.438 83.6146 326.438 86.5938C326.438 89.7188 325.26 92.3646 322.906 94.5312C320.531 96.7188 317.76 98.0208 314.594 98.4375L318.625 110.344C319.854 113.969 320.958 116.271 321.938 117.25C323.042 118.229 324.771 118.719 327.125 118.719L326.812 119.562ZM310.375 78.7812L305.25 96.7188C306.771 97.1354 308.385 97.3438 310.094 97.3438C313.948 97.3438 316.979 96.3021 319.188 94.2188C321.458 92.0729 322.594 89.5521 322.594 86.6562C322.594 81.2812 319.354 78.5938 312.875 78.5938C311.979 78.5938 311.146 78.6562 310.375 78.7812ZM353.062 113.469L360.688 86.6562C361.125 85.1771 361.417 83.9583 361.562 83C361.729 82.0417 361.771 81.2188 361.688 80.5312C361.625 79.8438 361.365 79.3333 360.906 79C360.448 78.6458 359.865 78.3958 359.156 78.25C358.448 78.1042 357.5 78.0312 356.312 78.0312L356.594 77.1875H371.312C377.417 77.1875 382.083 78.6562 385.312 81.5938C388.562 84.5312 390.188 88.9479 390.188 94.8438C390.188 101.135 387.927 106.75 383.406 111.688C381.198 114.146 378.292 116.073 374.688 117.469C371.083 118.865 367.094 119.562 362.719 119.562H345.25L345.5 118.719C347.667 118.719 349.323 118.344 350.469 117.594C351.615 116.844 352.479 115.469 353.062 113.469ZM365.875 78.8438L356.656 111.188C355.844 114.042 355.438 115.729 355.438 116.25C355.438 116.729 355.562 117.094 355.812 117.344C356.083 117.594 356.531 117.781 357.156 117.906C358.01 118.031 359.167 118.094 360.625 118.094H361.25C365.479 118.094 369.26 117.448 372.594 116.156C375.927 114.844 378.594 113.031 380.594 110.719C384.51 106.115 386.469 100.51 386.469 93.9062C386.469 83.7396 381.031 78.6562 370.156 78.6562C369.198 78.6562 367.771 78.7188 365.875 78.8438ZM397.562 113.406L405.188 86.6562C405.896 84.2604 406.25 82.4479 406.25 81.2188C406.25 80.0729 405.833 79.2604 405 78.7812C404.167 78.2812 402.833 78.0312 401 78.0312L401.281 77.1875H431.219L428.531 87.25H427.75C428.229 84.1875 427.885 82 426.719 80.6875C425.573 79.375 423.406 78.7188 420.219 78.7188H410.344L405.312 96.5938H411.562C414.75 96.5938 417.01 96.2083 418.344 95.4375C419.76 94.625 421 92.875 422.062 90.1875H422.844L418.469 105.625H417.719C418.24 102.979 418.135 101.073 417.406 99.9062C416.677 98.7188 415.24 98.125 413.094 98.125H404.844L401.219 111.062C400.531 113.333 400.188 114.906 400.188 115.781C400.188 116.719 400.594 117.333 401.406 117.625C402.219 117.896 403.771 118.031 406.062 118.031C411.875 118.031 415.906 117.438 418.156 116.25C420.427 115.083 422.781 112.302 425.219 107.906H425.969L422.062 119.562H389.75L390 118.719C392.167 118.719 393.812 118.333 394.938 117.562C396.083 116.771 396.958 115.385 397.562 113.406ZM463.656 83.5312L455.844 111C455.24 113.125 454.938 114.635 454.938 115.531C454.938 116.156 455.094 116.625 455.406 116.938C455.719 117.229 456.292 117.448 457.125 117.594C457.979 117.719 459.26 117.781 460.969 117.781C466.365 117.781 470.052 117.198 472.031 116.031C474.073 114.823 476.146 112.031 478.25 107.656H479L474.969 119.562H444.375L444.625 118.719C446.875 118.719 448.552 118.312 449.656 117.5C450.781 116.688 451.625 115.323 452.188 113.406L459.812 86.6562C460.542 84.1771 460.906 82.3646 460.906 81.2188C460.906 80.0729 460.5 79.2604 459.688 78.7812C458.875 78.2812 457.458 78.0312 455.438 78.0312L455.719 77.1875H471.719L471.438 78.0312C469.062 78.0312 467.323 78.4271 466.219 79.2188C465.135 80.0104 464.281 81.4479 463.656 83.5312ZM507 111.938L507.594 105.219H494.281L489.75 111.5L488.906 112.781C487.969 114.115 487.5 115.219 487.5 116.094C487.5 117.844 488.625 118.719 490.875 118.719L490.562 119.562H478.906L479.188 118.719C480.312 118.594 481.25 118.344 482 117.969C482.771 117.594 483.531 116.99 484.281 116.156L485.5 114.75L486.656 113.156C487.073 112.531 487.396 112.104 487.625 111.875L513.406 76.25H513.656L510.344 109.656C510.135 112.635 510.031 114.375 510.031 114.875C510.031 116.354 510.479 117.365 511.375 117.906C512.271 118.448 513.74 118.719 515.781 118.719L515.469 119.562H500.5L500.75 118.719C502.167 118.719 503.292 118.573 504.125 118.281C504.958 117.969 505.562 117.458 505.938 116.75C506.312 116.021 506.552 115.375 506.656 114.812C506.781 114.229 506.896 113.271 507 111.938ZM509.5 84.1562H509.312L495.438 103.688H507.719L509.5 84.1562ZM546.719 77.1875H555.344L559.438 114.438L586.969 77.1875H595.156L594.906 78.0312C592.719 78.0312 591.062 78.4375 589.938 79.25C588.812 80.0417 587.948 81.4688 587.344 83.5312L579.594 110.719C578.948 113.115 578.625 114.719 578.625 115.531C578.625 117.656 580.271 118.719 583.562 118.719L583.312 119.562H567.625L567.875 118.719C570.188 118.802 571.969 118.417 573.219 117.562C574.469 116.708 575.354 115.323 575.875 113.406L584.469 83.2188L584.344 83.0938L557.406 119.562H556.938L552.969 82.6875H552.844L544.781 111C544.177 113.292 543.875 114.781 543.875 115.469C543.875 117.635 545.5 118.719 548.75 118.719L548.5 119.562H535.5L535.688 118.719C537.792 118.719 539.333 118.292 540.312 117.438C541.333 116.479 542.188 114.802 542.875 112.406L552.031 80.3438C550.865 78.8021 549.021 78.0312 546.5 78.0312L546.719 77.1875ZM616.188 111.938L616.781 105.219H603.469L598.938 111.5L598.094 112.781C597.156 114.115 596.688 115.219 596.688 116.094C596.688 117.844 597.812 118.719 600.062 118.719L599.75 119.562H588.094L588.375 118.719C589.5 118.594 590.438 118.344 591.188 117.969C591.958 117.594 592.719 116.99 593.469 116.156L594.688 114.75L595.844 113.156C596.26 112.531 596.583 112.104 596.812 111.875L622.594 76.25H622.844L619.531 109.656C619.323 112.635 619.219 114.375 619.219 114.875C619.219 116.354 619.667 117.365 620.562 117.906C621.458 118.448 622.927 118.719 624.969 118.719L624.656 119.562H609.688L609.938 118.719C611.354 118.719 612.479 118.573 613.312 118.281C614.146 117.969 614.75 117.458 615.125 116.75C615.5 116.021 615.74 115.375 615.844 114.812C615.969 114.229 616.083 113.271 616.188 111.938ZM618.688 84.1562H618.5L604.625 103.688H616.906L618.688 84.1562ZM636.5 88.3438L639.5 77.1875H671.25L667.875 88.3438H667.031C667.51 86.1562 667.719 84.3646 667.656 82.9688C667.615 81.5521 667.073 80.5104 666.031 79.8438C665.01 79.1771 663.333 78.8438 661 78.8438H656.219L647.062 111C646.458 113.208 646.156 114.74 646.156 115.594C646.156 117.677 647.927 118.719 651.469 118.719L651.219 119.562H635.781L636.062 118.719C638.188 118.719 639.781 118.323 640.844 117.531C641.927 116.719 642.781 115.344 643.406 113.406L653.281 78.8438H652C647.771 78.8438 644.521 79.4896 642.25 80.7812C640.083 82.0104 638.448 84.5312 637.344 88.3438H636.5ZM680.125 119.562H664.312L664.562 118.719C666.771 118.719 668.448 118.312 669.594 117.5C670.74 116.688 671.583 115.323 672.125 113.406L679.75 86.6562C680.479 84.4271 680.844 82.6146 680.844 81.2188C680.844 80.1354 680.417 79.3333 679.562 78.8125C678.729 78.2917 677.333 78.0312 675.375 78.0312L675.656 77.1875H691.469L691.188 78.0312C688.917 78.0312 687.24 78.4375 686.156 79.25C685.073 80.0417 684.219 81.4688 683.594 83.5312L675.781 111C675.177 113.292 674.875 114.802 674.875 115.531C674.875 116.677 675.292 117.5 676.125 118C676.958 118.479 678.375 118.719 680.375 118.719L680.125 119.562ZM693 113.406L700.625 86.6562C701.333 84.2604 701.688 82.4479 701.688 81.2188C701.688 80.0729 701.271 79.2604 700.438 78.7812C699.604 78.2812 698.271 78.0312 696.438 78.0312L696.719 77.1875H726.656L723.969 87.25H723.188C723.667 84.1875 723.323 82 722.156 80.6875C721.01 79.375 718.844 78.7188 715.656 78.7188H705.781L700.75 96.5938H707C710.188 96.5938 712.448 96.2083 713.781 95.4375C715.198 94.625 716.438 92.875 717.5 90.1875H718.281L713.906 105.625H713.156C713.677 102.979 713.573 101.073 712.844 99.9062C712.115 98.7188 710.677 98.125 708.531 98.125H700.281L696.656 111.062C695.969 113.333 695.625 114.906 695.625 115.781C695.625 116.719 696.031 117.333 696.844 117.625C697.656 117.896 699.208 118.031 701.5 118.031C707.312 118.031 711.344 117.438 713.594 116.25C715.865 115.083 718.219 112.302 720.656 107.906H721.406L717.5 119.562H685.188L685.438 118.719C687.604 118.719 689.25 118.333 690.375 117.562C691.521 116.771 692.396 115.385 693 113.406ZM704.969 64H710.156L714.062 74.6875H713.344L704.969 64ZM760.875 119.562H752.688L745.781 98.75H744.312C742.375 98.75 740.604 98.4792 739 97.9375L735.281 111C734.677 113.479 734.375 114.99 734.375 115.531C734.375 116.635 734.792 117.448 735.625 117.969C736.458 118.469 737.875 118.719 739.875 118.719L739.625 119.562H723.812L724.062 118.719C726.312 118.719 728 118.302 729.125 117.469C730.271 116.635 731.104 115.281 731.625 113.406L739.25 86.6562C739.979 84.1771 740.344 82.3646 740.344 81.2188C740.344 79.0938 738.594 78.0312 735.094 78.0312L735.344 77.1875H748.969C752.74 77.1875 755.604 78.0104 757.562 79.6562C759.521 81.3021 760.5 83.6146 760.5 86.5938C760.5 89.7188 759.323 92.3646 756.969 94.5312C754.594 96.7188 751.823 98.0208 748.656 98.4375L752.688 110.344C753.917 113.969 755.021 116.271 756 117.25C757.104 118.229 758.833 118.719 761.188 118.719L760.875 119.562ZM744.438 78.7812L739.312 96.7188C740.833 97.1354 742.448 97.3438 744.156 97.3438C748.01 97.3438 751.042 96.3021 753.25 94.2188C755.521 92.0729 756.656 89.5521 756.656 86.6562C756.656 81.2812 753.417 78.5938 746.938 78.5938C746.042 78.5938 745.208 78.6562 744.438 78.7812ZM770.812 113.406L778.438 86.6562C779.146 84.2604 779.5 82.4479 779.5 81.2188C779.5 80.0729 779.083 79.2604 778.25 78.7812C777.417 78.2812 776.083 78.0312 774.25 78.0312L774.531 77.1875H804.469L801.781 87.25H801C801.479 84.1875 801.135 82 799.969 80.6875C798.823 79.375 796.656 78.7188 793.469 78.7188H783.594L778.562 96.5938H784.812C788 96.5938 790.26 96.2083 791.594 95.4375C793.01 94.625 794.25 92.875 795.312 90.1875H796.094L791.719 105.625H790.969C791.49 102.979 791.385 101.073 790.656 99.9062C789.927 98.7188 788.49 98.125 786.344 98.125H778.094L774.469 111.062C773.781 113.333 773.438 114.906 773.438 115.781C773.438 116.719 773.844 117.333 774.656 117.625C775.469 117.896 777.021 118.031 779.312 118.031C785.125 118.031 789.156 117.438 791.406 116.25C793.677 115.083 796.031 112.302 798.469 107.906H799.219L795.312 119.562H763L763.25 118.719C765.417 118.719 767.062 118.333 768.188 117.562C769.333 116.771 770.208 115.385 770.812 113.406Z" fill="white"/>
</svg>
